<?xml version="1.0" encoding="UTF-8" standalone="no"?>
<!DOCTYPE svg PUBLIC "-//W3C//DTD SVG 1.1//EN"
 "http://www.w3.org/Graphics/SVG/1.1/DTD/svg11.dtd">
<!-- Generated by graphviz version 8.0.5 (20230430.1635)
 -->
<!-- Title: inheritanceb670c1d2e2 Pages: 1 -->
<svg width="0pt" height="864pt"
 viewBox="0.00 0.00 0.29 864.00" xmlns="http://www.w3.org/2000/svg" xmlns:xlink="http://www.w3.org/1999/xlink">
<g id="graph0" class="graph" transform="scale(0.000735102 0.000735102) rotate(0) translate(4 1175343.81)">
<title>inheritanceb670c1d2e2</title>
<!-- ConfigurationMixIn -->
<g id="node1" class="node">
<title>ConfigurationMixIn</title>
<polygon fill="white" stroke="black" stroke-width="0.5" points="151,-1175321.69 0,-1175321.69 0,0 151,0 151,-1175321.69"/>
<text text-anchor="middle" x="75.5" y="-1175308.19" font-family="Vera Sans, DejaVu Sans, Liberation Sans, Arial, Helvetica, sans" font-size="10.00">ConfigurationMixIn</text>
</g>
<!-- Tool -->
<g id="node3" class="node">
<title>Tool</title>
<g id="a_node3"><a xlink:href="pyEDAA.ToolSetup.html#pyEDAA.ToolSetup.Tool" xlink:title="Tool" target="_top">
<polygon fill="white" stroke="black" stroke-width="0.5" points="267,-1175321.81 213,-1175321.81 213,0.12 267,0.12 267,-1175321.81"/>
<text text-anchor="middle" x="240" y="-1175308.31" font-family="Vera Sans, DejaVu Sans, Liberation Sans, Arial, Helvetica, sans" font-size="10.00">Tool</text>
</a>
</g>
</g>
<!-- ConfigurationMixIn&#45;&gt;Tool -->
<g id="edge4" class="edge">
<title>ConfigurationMixIn&#45;&gt;Tool</title>
<path fill="none" stroke="black" stroke-width="0.5" d="M151.09,-587660.85C170.71,-587660.85 190.85,-587660.85 206.89,-587660.85"/>
<polygon fill="black" stroke="black" stroke-width="0.5" points="207.61,-587662.6 212.61,-587660.85 207.61,-587659.1 207.61,-587662.6"/>
</g>
<!-- GHDL -->
<g id="node2" class="node">
<title>GHDL</title>
<g id="a_node2"><a xlink:href="pyEDAA.ToolSetup.OpenSource.GHDL.html#pyEDAA.ToolSetup.OpenSource.GHDL.GHDL" xlink:title="GHDL" target="_top">
<polygon fill="white" stroke="black" stroke-width="0.5" points="383,-554905.85 329,-554905.85 329,-554879.85 383,-554879.85 383,-554905.85"/>
<text text-anchor="middle" x="356" y="-554892.35" font-family="Vera Sans, DejaVu Sans, Liberation Sans, Arial, Helvetica, sans" font-size="10.00">GHDL</text>
</a>
</g>
</g>
<!-- Tool&#45;&gt;GHDL -->
<g id="edge1" class="edge">
<title>Tool&#45;&gt;GHDL</title>
<path fill="none" stroke="black" stroke-width="0.5" d="M267.5,-580043.76C300.49,-570560.61 352.81,-555523.12 354.93,-554912.07"/>
<polygon fill="black" stroke="black" stroke-width="0.5" points="356.69,-554911.3 354.95,-554906.29 353.19,-554911.29 356.69,-554911.3"/>
</g>
<!-- Tool&#45;&gt;Tool -->
<g id="edge3" class="edge">
<title>Tool&#45;&gt;Tool</title>
<path fill="none" stroke="black" stroke-width="0.5" d="M239.66,-1175322.19C239.78,-1175333.92 239.89,-1175339.81 240,-1175339.81 240.09,-1175339.81 240.18,-1175335.92 240.27,-1175328.17"/>
<polygon fill="black" stroke="black" stroke-width="0.5" points="242.03,-1175327.21 240.34,-1175322.19 238.53,-1175327.17 242.03,-1175327.21"/>
</g>
<!-- HDLSimulator -->
<g id="node4" class="node">
<title>HDLSimulator</title>
<g id="a_node4"><a xlink:href="pyEDAA.ToolSetup.Interface.html#pyEDAA.ToolSetup.Interface.HDLSimulator" xlink:title="HDLSimulator" target="_top">
<polygon fill="white" stroke="black" stroke-width="0.5" points="293,-522138.85 187,-522138.85 187,-522112.85 293,-522112.85 293,-522138.85"/>
<text text-anchor="middle" x="240" y="-522125.35" font-family="Vera Sans, DejaVu Sans, Liberation Sans, Arial, Helvetica, sans" font-size="10.00">HDLSimulator</text>
</a>
</g>
</g>
<!-- HDLSimulator&#45;&gt;GHDL -->
<g id="edge2" class="edge">
<title>HDLSimulator&#45;&gt;GHDL</title>
<path fill="none" stroke="black" stroke-width="0.5" d="M289.66,-522139.02C290.87,-522140.19 292,-522141.46 293,-522142.85 358.91,-522233.55 355.12,-553984.1 355,-554873.79"/>
<polygon fill="black" stroke="black" stroke-width="0.5" points="353.25,-554874.5 355,-554879.5 356.75,-554874.5 353.25,-554874.5"/>
</g>
</g>
</svg>
