<?xml version="1.0" encoding="UTF-8" standalone="no"?>
<!DOCTYPE svg PUBLIC "-//W3C//DTD SVG 1.1//EN"
 "http://www.w3.org/Graphics/SVG/1.1/DTD/svg11.dtd">
<!-- Generated by graphviz version 8.0.5 (20230430.1635)
 -->
<!-- Title: inheritancec27dec3203 Pages: 1 -->
<svg width="0pt" height="864pt"
 viewBox="0.00 0.00 0.43 864.00" xmlns="http://www.w3.org/2000/svg" xmlns:xlink="http://www.w3.org/1999/xlink">
<g id="graph0" class="graph" transform="scale(0.000968805 0.000968805) rotate(0) translate(4 891816.32)">
<title>inheritancec27dec3203</title>
<!-- ConfigurationMixIn -->
<g id="node1" class="node">
<title>ConfigurationMixIn</title>
<polygon fill="white" stroke="black" stroke-width="0.5" points="151,-478694.42 0,-478694.42 0,-478675.92 151,-478675.92 151,-478694.42"/>
<text text-anchor="middle" x="75.5" y="-478680.92" font-family="Vera Sans, DejaVu Sans, Liberation Sans, Arial, Helvetica, sans" font-size="10.00">ConfigurationMixIn</text>
</g>
<!-- ToolInstance -->
<g id="node3" class="node">
<title>ToolInstance</title>
<g id="a_node3"><a xlink:href="pyEDAA.ToolSetup.html#pyEDAA.ToolSetup.ToolInstance" xlink:title="ToolInstance" target="_top">
<polygon fill="white" stroke="black" stroke-width="0.5" points="293,-891794.32 187,-891794.32 187,-65540.01 293,-65540.01 293,-891794.32"/>
<text text-anchor="middle" x="240" y="-891780.82" font-family="Vera Sans, DejaVu Sans, Liberation Sans, Arial, Helvetica, sans" font-size="10.00">ToolInstance</text>
</a>
</g>
</g>
<!-- ConfigurationMixIn&#45;&gt;ToolInstance -->
<g id="edge5" class="edge">
<title>ConfigurationMixIn&#45;&gt;ToolInstance</title>
<path fill="none" stroke="black" stroke-width="0.5" d="M151.09,-478676.9C161.04,-478675.8 171.12,-478674.68 180.74,-478673.62"/>
<polygon fill="black" stroke="black" stroke-width="0.5" points="181.88,-478675.25 186.66,-478672.96 181.5,-478671.77 181.88,-478675.25"/>
</g>
<!-- GHDLInstance -->
<g id="node2" class="node">
<title>GHDLInstance</title>
<g id="a_node2"><a xlink:href="pyEDAA.ToolSetup.OpenSource.GHDL.html#pyEDAA.ToolSetup.OpenSource.GHDL.GHDLInstance" xlink:title="GHDLInstance" target="_top">
<polygon fill="white" stroke="black" stroke-width="0.5" points="435,-445908.42 329,-445908.42 329,-445889.92 435,-445889.92 435,-445908.42"/>
<text text-anchor="middle" x="382" y="-445894.92" font-family="Vera Sans, DejaVu Sans, Liberation Sans, Arial, Helvetica, sans" font-size="10.00">GHDLInstance</text>
</a>
</g>
</g>
<!-- ToolInstance&#45;&gt;GHDLInstance -->
<g id="edge1" class="edge">
<title>ToolInstance&#45;&gt;GHDLInstance</title>
<path fill="none" stroke="black" stroke-width="0.5" d="M293.5,-466379.27C332.37,-457281.17 378.94,-446382.39 380.93,-445914.75"/>
<polygon fill="black" stroke="black" stroke-width="0.5" points="382.69,-445913.9 380.96,-445908.9 379.19,-445913.89 382.69,-445913.9"/>
</g>
<!-- ToolInstance&#45;&gt;ToolInstance -->
<g id="edge4" class="edge">
<title>ToolInstance&#45;&gt;ToolInstance</title>
<path fill="none" stroke="black" stroke-width="0.5" d="M239.51,-891794.58C239.67,-891806.4 239.84,-891812.32 240,-891812.32 240.14,-891812.32 240.27,-891808.26 240.41,-891800.15"/>
<polygon fill="black" stroke="black" stroke-width="0.5" points="242.17,-891799.61 240.49,-891794.58 238.67,-891799.56 242.17,-891799.61"/>
</g>
<!-- HDLSimulator -->
<g id="node4" class="node">
<title>HDLSimulator</title>
<g id="a_node4"><a xlink:href="pyEDAA.ToolSetup.Interface.html#pyEDAA.ToolSetup.Interface.HDLSimulator" xlink:title="HDLSimulator" target="_top">
<polygon fill="white" stroke="black" stroke-width="0.5" points="293,-826264.33 187,-826264.33 187,0 293,0 293,-826264.33"/>
<text text-anchor="middle" x="240" y="-826250.83" font-family="Vera Sans, DejaVu Sans, Liberation Sans, Arial, Helvetica, sans" font-size="10.00">HDLSimulator</text>
</a>
</g>
</g>
<!-- HDLSimulator&#45;&gt;GHDLInstance -->
<g id="edge2" class="edge">
<title>HDLSimulator&#45;&gt;GHDLInstance</title>
<path fill="none" stroke="black" stroke-width="0.5" d="M293.5,-425419.69C332.37,-434517.51 378.94,-445415.96 380.93,-445883.58"/>
<polygon fill="black" stroke="black" stroke-width="0.5" points="379.19,-445884.44 380.96,-445889.44 382.69,-445884.43 379.19,-445884.44"/>
</g>
<!-- ToolInformation -->
<g id="node5" class="node">
<title>ToolInformation</title>
<g id="a_node5"><a xlink:href="pyEDAA.ToolSetup.DataModel.html#pyEDAA.ToolSetup.DataModel.ToolInformation" xlink:title="ToolInformation" target="_top">
<polygon fill="white" stroke="black" stroke-width="0.5" points="139.75,-478657.42 11.25,-478657.42 11.25,-478638.92 139.75,-478638.92 139.75,-478657.42"/>
<text text-anchor="middle" x="75.5" y="-478643.92" font-family="Vera Sans, DejaVu Sans, Liberation Sans, Arial, Helvetica, sans" font-size="10.00">ToolInformation</text>
</a>
</g>
</g>
<!-- ToolInformation&#45;&gt;ToolInstance -->
<g id="edge3" class="edge">
<title>ToolInformation&#45;&gt;ToolInstance</title>
<path fill="none" stroke="black" stroke-width="0.5" d="M139.79,-478655.57C153.36,-478657.15 167.63,-478658.82 180.99,-478660.38"/>
<polygon fill="black" stroke="black" stroke-width="0.5" points="181.48,-478662.2 186.65,-478661.05 181.89,-478658.73 181.48,-478662.2"/>
</g>
</g>
</svg>
