<?xml version="1.0" encoding="UTF-8" standalone="no"?>
<!DOCTYPE svg PUBLIC "-//W3C//DTD SVG 1.1//EN"
 "http://www.w3.org/Graphics/SVG/1.1/DTD/svg11.dtd">
<!-- Generated by graphviz version 8.0.5 (20230430.1635)
 -->
<!-- Title: inheritancecf93dc4827 Pages: 1 -->
<svg width="1pt" height="864pt"
 viewBox="0.00 0.00 0.56 864.00" xmlns="http://www.w3.org/2000/svg" xmlns:xlink="http://www.w3.org/1999/xlink">
<g id="graph0" class="graph" transform="scale(0.00117248 0.00117248) rotate(0) translate(4 736898.68)">
<title>inheritancecf93dc4827</title>
<!-- ActiveHDLInstance -->
<g id="node1" class="node">
<title>ActiveHDLInstance</title>
<g id="a_node1"><a xlink:href="pyEDAA.ToolSetup.Aldec.html#pyEDAA.ToolSetup.Aldec.ActiveHDLInstance" xlink:title="ActiveHDLInstance" target="_top">
<polygon fill="white" stroke="black" stroke-width="0.5" points="472.5,-32785.25 329,-32785.25 329,-32766.75 472.5,-32766.75 472.5,-32785.25"/>
<text text-anchor="middle" x="400.75" y="-32771.75" font-family="Vera Sans, DejaVu Sans, Liberation Sans, Arial, Helvetica, sans" font-size="10.00">ActiveHDLInstance</text>
</a>
</g>
</g>
<!-- ToolInstance -->
<g id="node2" class="node">
<title>ToolInstance</title>
<g id="a_node2"><a xlink:href="pyEDAA.ToolSetup.html#pyEDAA.ToolSetup.ToolInstance" xlink:title="ToolInstance" target="_top">
<polygon fill="white" stroke="black" stroke-width="0.5" points="293,-32785.25 187,-32785.25 187,-32766.75 293,-32766.75 293,-32785.25"/>
<text text-anchor="middle" x="240" y="-32771.75" font-family="Vera Sans, DejaVu Sans, Liberation Sans, Arial, Helvetica, sans" font-size="10.00">ToolInstance</text>
</a>
</g>
</g>
<!-- ToolInstance&#45;&gt;ActiveHDLInstance -->
<g id="edge1" class="edge">
<title>ToolInstance&#45;&gt;ActiveHDLInstance</title>
<path fill="none" stroke="black" stroke-width="0.5" d="M293.42,-32776C302.86,-32776 312.87,-32776 322.83,-32776"/>
<polygon fill="black" stroke="black" stroke-width="0.5" points="323.69,-32777.75 328.69,-32776 323.69,-32774.25 323.69,-32777.75"/>
</g>
<!-- ToolInstance&#45;&gt;ToolInstance -->
<g id="edge3" class="edge">
<title>ToolInstance&#45;&gt;ToolInstance</title>
<path fill="none" stroke="black" stroke-width="0.5" d="M215.22,-32785.5C203.17,-32794.07 211.43,-32803.25 240,-32803.25 264.11,-32803.25 273.75,-32796.71 268.94,-32789.52"/>
<polygon fill="black" stroke="black" stroke-width="0.5" points="269.59,-32787.71 264.78,-32785.5 267.15,-32790.23 269.59,-32787.71"/>
</g>
<!-- ConfigurationMixIn -->
<g id="node3" class="node">
<title>ConfigurationMixIn</title>
<polygon fill="white" stroke="black" stroke-width="0.5" points="151,-736894.68 0,-736894.68 0,605806.68 151,605806.68 151,-736894.68"/>
<text text-anchor="middle" x="75.5" y="-736881.18" font-family="Vera Sans, DejaVu Sans, Liberation Sans, Arial, Helvetica, sans" font-size="10.00">ConfigurationMixIn</text>
</g>
<!-- ConfigurationMixIn&#45;&gt;ToolInstance -->
<g id="edge4" class="edge">
<title>ConfigurationMixIn&#45;&gt;ToolInstance</title>
<path fill="none" stroke="black" stroke-width="0.5" d="M151.5,-50420.39C193.09,-42033.19 236.88,-33202.87 238.93,-32790.99"/>
<polygon fill="black" stroke="black" stroke-width="0.5" points="240.68,-32790.3 238.95,-32785.29 237.18,-32790.28 240.68,-32790.3"/>
</g>
<!-- ToolInformation -->
<g id="node4" class="node">
<title>ToolInformation</title>
<g id="a_node4"><a xlink:href="pyEDAA.ToolSetup.DataModel.html#pyEDAA.ToolSetup.DataModel.ToolInformation" xlink:title="ToolInformation" target="_top">
<polygon fill="white" stroke="black" stroke-width="0.5" points="139.75,-18 11.25,-18 11.25,0 139.75,0 139.75,-18"/>
<text text-anchor="middle" x="75.5" y="0.5" font-family="Vera Sans, DejaVu Sans, Liberation Sans, Arial, Helvetica, sans" font-size="10.00">ToolInformation</text>
</a>
</g>
</g>
<!-- ToolInformation&#45;&gt;ToolInstance -->
<g id="edge2" class="edge">
<title>ToolInformation&#45;&gt;ToolInstance</title>
<path fill="none" stroke="black" stroke-width="0.5" d="M140.25,-13.29C144.29,-15.53 147.95,-18.39 151,-22 223.39,-107.88 238.63,-31969.26 238.99,-32761"/>
<polygon fill="black" stroke="black" stroke-width="0.5" points="237.24,-32761.72 239,-32766.71 240.74,-32761.71 237.24,-32761.72"/>
</g>
</g>
</svg>
